<mxfile host="Electron" agent="Mozilla/5.0 (Windows NT 10.0; Win64; x64) AppleWebKit/537.36 (KHTML, like Gecko) draw.io/24.7.17 Chrome/128.0.6613.36 Electron/32.0.1 Safari/537.36" version="24.7.17">
  <diagram name="第 1 页" id="oneOW_gIvz3u2M_ec06I">
    <mxGraphModel dx="2117" dy="717" grid="1" gridSize="10" guides="1" tooltips="1" connect="1" arrows="1" fold="1" page="1" pageScale="1" pageWidth="827" pageHeight="1169" math="0" shadow="0">
      <root>
        <mxCell id="0" />
        <mxCell id="1" parent="0" />
        <mxCell id="Tz1MZ0GIb3pfE02NoQR0-21" style="edgeStyle=orthogonalEdgeStyle;rounded=0;orthogonalLoop=1;jettySize=auto;html=1;exitX=1;exitY=0.5;exitDx=0;exitDy=0;" edge="1" parent="1" source="Tz1MZ0GIb3pfE02NoQR0-6" target="Tz1MZ0GIb3pfE02NoQR0-19">
          <mxGeometry relative="1" as="geometry" />
        </mxCell>
        <mxCell id="Tz1MZ0GIb3pfE02NoQR0-22" value="letter" style="edgeLabel;html=1;align=center;verticalAlign=middle;resizable=0;points=[];" vertex="1" connectable="0" parent="Tz1MZ0GIb3pfE02NoQR0-21">
          <mxGeometry x="-0.0884" y="-2" relative="1" as="geometry">
            <mxPoint as="offset" />
          </mxGeometry>
        </mxCell>
        <mxCell id="Tz1MZ0GIb3pfE02NoQR0-25" style="edgeStyle=orthogonalEdgeStyle;rounded=0;orthogonalLoop=1;jettySize=auto;html=1;exitX=0.5;exitY=1;exitDx=0;exitDy=0;entryX=0;entryY=0.5;entryDx=0;entryDy=0;" edge="1" parent="1" source="Tz1MZ0GIb3pfE02NoQR0-6" target="Tz1MZ0GIb3pfE02NoQR0-18">
          <mxGeometry relative="1" as="geometry" />
        </mxCell>
        <mxCell id="Tz1MZ0GIb3pfE02NoQR0-26" value="digit" style="edgeLabel;html=1;align=center;verticalAlign=middle;resizable=0;points=[];" vertex="1" connectable="0" parent="Tz1MZ0GIb3pfE02NoQR0-25">
          <mxGeometry x="0.381" y="1" relative="1" as="geometry">
            <mxPoint as="offset" />
          </mxGeometry>
        </mxCell>
        <mxCell id="Tz1MZ0GIb3pfE02NoQR0-27" style="edgeStyle=orthogonalEdgeStyle;rounded=0;orthogonalLoop=1;jettySize=auto;html=1;exitX=0.5;exitY=1;exitDx=0;exitDy=0;entryX=0;entryY=0.5;entryDx=0;entryDy=0;" edge="1" parent="1" source="Tz1MZ0GIb3pfE02NoQR0-6" target="Tz1MZ0GIb3pfE02NoQR0-17">
          <mxGeometry relative="1" as="geometry" />
        </mxCell>
        <mxCell id="Tz1MZ0GIb3pfE02NoQR0-28" value="&quot;" style="edgeLabel;html=1;align=center;verticalAlign=middle;resizable=0;points=[];" vertex="1" connectable="0" parent="Tz1MZ0GIb3pfE02NoQR0-27">
          <mxGeometry x="0.5873" y="-1" relative="1" as="geometry">
            <mxPoint as="offset" />
          </mxGeometry>
        </mxCell>
        <mxCell id="Tz1MZ0GIb3pfE02NoQR0-86" value="&quot;" style="edgeLabel;html=1;align=center;verticalAlign=middle;resizable=0;points=[];" vertex="1" connectable="0" parent="Tz1MZ0GIb3pfE02NoQR0-27">
          <mxGeometry x="0.5873" y="-1" relative="1" as="geometry">
            <mxPoint x="73" y="-80" as="offset" />
          </mxGeometry>
        </mxCell>
        <mxCell id="Tz1MZ0GIb3pfE02NoQR0-29" style="edgeStyle=orthogonalEdgeStyle;rounded=0;orthogonalLoop=1;jettySize=auto;html=1;exitX=0.5;exitY=1;exitDx=0;exitDy=0;entryX=0;entryY=0.5;entryDx=0;entryDy=0;" edge="1" parent="1" source="Tz1MZ0GIb3pfE02NoQR0-6" target="Tz1MZ0GIb3pfE02NoQR0-20">
          <mxGeometry relative="1" as="geometry" />
        </mxCell>
        <mxCell id="Tz1MZ0GIb3pfE02NoQR0-30" value="operator" style="edgeLabel;html=1;align=center;verticalAlign=middle;resizable=0;points=[];" vertex="1" connectable="0" parent="Tz1MZ0GIb3pfE02NoQR0-29">
          <mxGeometry x="0.6059" relative="1" as="geometry">
            <mxPoint x="29" as="offset" />
          </mxGeometry>
        </mxCell>
        <mxCell id="Tz1MZ0GIb3pfE02NoQR0-31" style="edgeStyle=orthogonalEdgeStyle;rounded=0;orthogonalLoop=1;jettySize=auto;html=1;exitX=0.5;exitY=1;exitDx=0;exitDy=0;entryX=0;entryY=0.5;entryDx=0;entryDy=0;" edge="1" parent="1" source="Tz1MZ0GIb3pfE02NoQR0-6" target="Tz1MZ0GIb3pfE02NoQR0-16">
          <mxGeometry relative="1" as="geometry" />
        </mxCell>
        <mxCell id="Tz1MZ0GIb3pfE02NoQR0-32" value="//" style="edgeLabel;html=1;align=center;verticalAlign=middle;resizable=0;points=[];" vertex="1" connectable="0" parent="Tz1MZ0GIb3pfE02NoQR0-31">
          <mxGeometry x="0.6825" y="-1" relative="1" as="geometry">
            <mxPoint as="offset" />
          </mxGeometry>
        </mxCell>
        <mxCell id="Tz1MZ0GIb3pfE02NoQR0-34" style="edgeStyle=orthogonalEdgeStyle;rounded=0;orthogonalLoop=1;jettySize=auto;html=1;exitX=0.5;exitY=1;exitDx=0;exitDy=0;entryX=0;entryY=0.5;entryDx=0;entryDy=0;" edge="1" parent="1" source="Tz1MZ0GIb3pfE02NoQR0-6" target="Tz1MZ0GIb3pfE02NoQR0-33">
          <mxGeometry relative="1" as="geometry" />
        </mxCell>
        <mxCell id="Tz1MZ0GIb3pfE02NoQR0-35" value="/*" style="edgeLabel;html=1;align=center;verticalAlign=middle;resizable=0;points=[];" vertex="1" connectable="0" parent="Tz1MZ0GIb3pfE02NoQR0-34">
          <mxGeometry x="0.7007" relative="1" as="geometry">
            <mxPoint as="offset" />
          </mxGeometry>
        </mxCell>
        <mxCell id="Tz1MZ0GIb3pfE02NoQR0-6" value="S" style="ellipse;whiteSpace=wrap;html=1;aspect=fixed;" vertex="1" parent="1">
          <mxGeometry x="-100" y="250" width="40" height="40" as="geometry" />
        </mxCell>
        <mxCell id="Tz1MZ0GIb3pfE02NoQR0-7" value="S" style="ellipse;whiteSpace=wrap;html=1;aspect=fixed;" vertex="1" parent="1">
          <mxGeometry x="105" y="440" width="40" height="40" as="geometry" />
        </mxCell>
        <mxCell id="Tz1MZ0GIb3pfE02NoQR0-8" value="F" style="ellipse;whiteSpace=wrap;html=1;aspect=fixed;" vertex="1" parent="1">
          <mxGeometry x="110" y="445" width="30" height="30" as="geometry" />
        </mxCell>
        <mxCell id="Tz1MZ0GIb3pfE02NoQR0-9" style="edgeStyle=orthogonalEdgeStyle;rounded=0;orthogonalLoop=1;jettySize=auto;html=1;exitX=0;exitY=0.5;exitDx=0;exitDy=0;" edge="1" parent="1" source="Tz1MZ0GIb3pfE02NoQR0-6" target="Tz1MZ0GIb3pfE02NoQR0-6">
          <mxGeometry relative="1" as="geometry">
            <Array as="points">
              <mxPoint x="-120" y="270" />
              <mxPoint x="-120" y="230" />
              <mxPoint x="-80" y="230" />
            </Array>
          </mxGeometry>
        </mxCell>
        <mxCell id="Tz1MZ0GIb3pfE02NoQR0-10" value="space" style="edgeLabel;html=1;align=center;verticalAlign=middle;resizable=0;points=[];" vertex="1" connectable="0" parent="Tz1MZ0GIb3pfE02NoQR0-9">
          <mxGeometry x="0.0556" y="3" relative="1" as="geometry">
            <mxPoint as="offset" />
          </mxGeometry>
        </mxCell>
        <mxCell id="Tz1MZ0GIb3pfE02NoQR0-15" value="S" style="ellipse;whiteSpace=wrap;html=1;aspect=fixed;" vertex="1" parent="1">
          <mxGeometry x="105" y="250" width="40" height="40" as="geometry" />
        </mxCell>
        <mxCell id="Tz1MZ0GIb3pfE02NoQR0-16" value="I" style="ellipse;whiteSpace=wrap;html=1;aspect=fixed;" vertex="1" parent="1">
          <mxGeometry x="10" y="615" width="40" height="40" as="geometry" />
        </mxCell>
        <mxCell id="Tz1MZ0GIb3pfE02NoQR0-58" style="edgeStyle=orthogonalEdgeStyle;rounded=0;orthogonalLoop=1;jettySize=auto;html=1;exitX=1;exitY=0.5;exitDx=0;exitDy=0;entryX=0;entryY=0.5;entryDx=0;entryDy=0;" edge="1" parent="1" source="Tz1MZ0GIb3pfE02NoQR0-17" target="Tz1MZ0GIb3pfE02NoQR0-7">
          <mxGeometry relative="1" as="geometry" />
        </mxCell>
        <mxCell id="Tz1MZ0GIb3pfE02NoQR0-59" value="&quot;" style="edgeLabel;html=1;align=center;verticalAlign=middle;resizable=0;points=[];" vertex="1" connectable="0" parent="Tz1MZ0GIb3pfE02NoQR0-58">
          <mxGeometry x="-0.0747" y="-1" relative="1" as="geometry">
            <mxPoint as="offset" />
          </mxGeometry>
        </mxCell>
        <mxCell id="Tz1MZ0GIb3pfE02NoQR0-17" value="E" style="ellipse;whiteSpace=wrap;html=1;aspect=fixed;" vertex="1" parent="1">
          <mxGeometry x="10" y="440" width="40" height="40" as="geometry" />
        </mxCell>
        <mxCell id="Tz1MZ0GIb3pfE02NoQR0-54" style="edgeStyle=orthogonalEdgeStyle;rounded=0;orthogonalLoop=1;jettySize=auto;html=1;exitX=1;exitY=0.5;exitDx=0;exitDy=0;entryX=0;entryY=0.5;entryDx=0;entryDy=0;" edge="1" parent="1" source="Tz1MZ0GIb3pfE02NoQR0-90" target="Tz1MZ0GIb3pfE02NoQR0-50">
          <mxGeometry relative="1" as="geometry">
            <mxPoint x="230.00000000000023" y="380" as="sourcePoint" />
          </mxGeometry>
        </mxCell>
        <mxCell id="Tz1MZ0GIb3pfE02NoQR0-55" value="else" style="edgeLabel;html=1;align=center;verticalAlign=middle;resizable=0;points=[];" vertex="1" connectable="0" parent="Tz1MZ0GIb3pfE02NoQR0-54">
          <mxGeometry x="-0.3576" relative="1" as="geometry">
            <mxPoint as="offset" />
          </mxGeometry>
        </mxCell>
        <mxCell id="Tz1MZ0GIb3pfE02NoQR0-88" style="edgeStyle=orthogonalEdgeStyle;rounded=0;orthogonalLoop=1;jettySize=auto;html=1;exitX=1;exitY=0.5;exitDx=0;exitDy=0;entryX=0;entryY=0.5;entryDx=0;entryDy=0;" edge="1" parent="1" source="Tz1MZ0GIb3pfE02NoQR0-18" target="Tz1MZ0GIb3pfE02NoQR0-87">
          <mxGeometry relative="1" as="geometry" />
        </mxCell>
        <mxCell id="Tz1MZ0GIb3pfE02NoQR0-89" value="." style="edgeLabel;html=1;align=center;verticalAlign=middle;resizable=0;points=[];" vertex="1" connectable="0" parent="Tz1MZ0GIb3pfE02NoQR0-88">
          <mxGeometry x="-0.3399" y="1" relative="1" as="geometry">
            <mxPoint as="offset" />
          </mxGeometry>
        </mxCell>
        <mxCell id="Tz1MZ0GIb3pfE02NoQR0-18" value="C" style="ellipse;whiteSpace=wrap;html=1;aspect=fixed;" vertex="1" parent="1">
          <mxGeometry x="10" y="360" width="40" height="40" as="geometry" />
        </mxCell>
        <mxCell id="Tz1MZ0GIb3pfE02NoQR0-40" style="edgeStyle=orthogonalEdgeStyle;rounded=0;orthogonalLoop=1;jettySize=auto;html=1;exitX=0;exitY=0;exitDx=0;exitDy=0;" edge="1" parent="1" source="Tz1MZ0GIb3pfE02NoQR0-19" target="Tz1MZ0GIb3pfE02NoQR0-19">
          <mxGeometry relative="1" as="geometry">
            <mxPoint x="50" y="230" as="targetPoint" />
            <Array as="points">
              <mxPoint x="16" y="230" />
              <mxPoint x="70" y="230" />
              <mxPoint x="70" y="256" />
            </Array>
          </mxGeometry>
        </mxCell>
        <mxCell id="Tz1MZ0GIb3pfE02NoQR0-42" value="digit/letter" style="edgeLabel;html=1;align=center;verticalAlign=middle;resizable=0;points=[];" vertex="1" connectable="0" parent="Tz1MZ0GIb3pfE02NoQR0-40">
          <mxGeometry x="-0.209" y="2" relative="1" as="geometry">
            <mxPoint as="offset" />
          </mxGeometry>
        </mxCell>
        <mxCell id="Tz1MZ0GIb3pfE02NoQR0-43" value="" style="edgeStyle=orthogonalEdgeStyle;rounded=0;orthogonalLoop=1;jettySize=auto;html=1;" edge="1" parent="1" source="Tz1MZ0GIb3pfE02NoQR0-19" target="Tz1MZ0GIb3pfE02NoQR0-15">
          <mxGeometry relative="1" as="geometry" />
        </mxCell>
        <mxCell id="Tz1MZ0GIb3pfE02NoQR0-44" value="else" style="edgeLabel;html=1;align=center;verticalAlign=middle;resizable=0;points=[];" vertex="1" connectable="0" parent="Tz1MZ0GIb3pfE02NoQR0-43">
          <mxGeometry x="-0.0876" y="-1" relative="1" as="geometry">
            <mxPoint as="offset" />
          </mxGeometry>
        </mxCell>
        <mxCell id="Tz1MZ0GIb3pfE02NoQR0-19" value="A" style="ellipse;whiteSpace=wrap;html=1;aspect=fixed;" vertex="1" parent="1">
          <mxGeometry x="10" y="250" width="40" height="40" as="geometry" />
        </mxCell>
        <mxCell id="Tz1MZ0GIb3pfE02NoQR0-20" value="G" style="ellipse;whiteSpace=wrap;html=1;aspect=fixed;" vertex="1" parent="1">
          <mxGeometry x="10" y="525" width="40" height="40" as="geometry" />
        </mxCell>
        <mxCell id="Tz1MZ0GIb3pfE02NoQR0-33" value="K" style="ellipse;whiteSpace=wrap;html=1;aspect=fixed;" vertex="1" parent="1">
          <mxGeometry x="10" y="700" width="40" height="40" as="geometry" />
        </mxCell>
        <mxCell id="Tz1MZ0GIb3pfE02NoQR0-45" value="B" style="ellipse;whiteSpace=wrap;html=1;aspect=fixed;" vertex="1" parent="1">
          <mxGeometry x="110" y="255" width="30" height="30" as="geometry" />
        </mxCell>
        <mxCell id="Tz1MZ0GIb3pfE02NoQR0-46" style="edgeStyle=orthogonalEdgeStyle;rounded=0;orthogonalLoop=1;jettySize=auto;html=1;exitX=0;exitY=0;exitDx=0;exitDy=0;" edge="1" parent="1">
          <mxGeometry relative="1" as="geometry">
            <mxPoint x="45" y="366" as="targetPoint" />
            <mxPoint x="17" y="366" as="sourcePoint" />
            <Array as="points">
              <mxPoint x="17" y="340" />
              <mxPoint x="71" y="340" />
              <mxPoint x="71" y="366" />
            </Array>
          </mxGeometry>
        </mxCell>
        <mxCell id="Tz1MZ0GIb3pfE02NoQR0-47" value="digit" style="edgeLabel;html=1;align=center;verticalAlign=middle;resizable=0;points=[];" vertex="1" connectable="0" parent="Tz1MZ0GIb3pfE02NoQR0-46">
          <mxGeometry x="-0.209" y="2" relative="1" as="geometry">
            <mxPoint as="offset" />
          </mxGeometry>
        </mxCell>
        <mxCell id="Tz1MZ0GIb3pfE02NoQR0-50" value="S" style="ellipse;whiteSpace=wrap;html=1;aspect=fixed;" vertex="1" parent="1">
          <mxGeometry x="285" y="360" width="40" height="40" as="geometry" />
        </mxCell>
        <mxCell id="Tz1MZ0GIb3pfE02NoQR0-51" value="D" style="ellipse;whiteSpace=wrap;html=1;aspect=fixed;" vertex="1" parent="1">
          <mxGeometry x="290" y="365" width="30" height="30" as="geometry" />
        </mxCell>
        <mxCell id="Tz1MZ0GIb3pfE02NoQR0-60" style="edgeStyle=orthogonalEdgeStyle;rounded=0;orthogonalLoop=1;jettySize=auto;html=1;exitX=0;exitY=0;exitDx=0;exitDy=0;" edge="1" parent="1">
          <mxGeometry relative="1" as="geometry">
            <mxPoint x="43" y="445" as="targetPoint" />
            <mxPoint x="15" y="445" as="sourcePoint" />
            <Array as="points">
              <mxPoint x="15" y="419" />
              <mxPoint x="69" y="419" />
              <mxPoint x="69" y="445" />
            </Array>
          </mxGeometry>
        </mxCell>
        <mxCell id="Tz1MZ0GIb3pfE02NoQR0-61" value="else" style="edgeLabel;html=1;align=center;verticalAlign=middle;resizable=0;points=[];" vertex="1" connectable="0" parent="Tz1MZ0GIb3pfE02NoQR0-60">
          <mxGeometry x="-0.209" y="2" relative="1" as="geometry">
            <mxPoint as="offset" />
          </mxGeometry>
        </mxCell>
        <mxCell id="Tz1MZ0GIb3pfE02NoQR0-62" style="edgeStyle=orthogonalEdgeStyle;rounded=0;orthogonalLoop=1;jettySize=auto;html=1;exitX=0;exitY=0;exitDx=0;exitDy=0;" edge="1" parent="1">
          <mxGeometry relative="1" as="geometry">
            <mxPoint x="43" y="531" as="targetPoint" />
            <mxPoint x="15" y="531" as="sourcePoint" />
            <Array as="points">
              <mxPoint x="15" y="505" />
              <mxPoint x="69" y="505" />
              <mxPoint x="69" y="531" />
            </Array>
          </mxGeometry>
        </mxCell>
        <mxCell id="Tz1MZ0GIb3pfE02NoQR0-63" value="else" style="edgeLabel;html=1;align=center;verticalAlign=middle;resizable=0;points=[];" vertex="1" connectable="0" parent="Tz1MZ0GIb3pfE02NoQR0-62">
          <mxGeometry x="-0.209" y="2" relative="1" as="geometry">
            <mxPoint as="offset" />
          </mxGeometry>
        </mxCell>
        <mxCell id="Tz1MZ0GIb3pfE02NoQR0-64" style="edgeStyle=orthogonalEdgeStyle;rounded=0;orthogonalLoop=1;jettySize=auto;html=1;exitX=0;exitY=0;exitDx=0;exitDy=0;" edge="1" parent="1">
          <mxGeometry relative="1" as="geometry">
            <mxPoint x="44" y="621" as="targetPoint" />
            <mxPoint x="16" y="621" as="sourcePoint" />
            <Array as="points">
              <mxPoint x="16" y="595" />
              <mxPoint x="70" y="595" />
              <mxPoint x="70" y="621" />
            </Array>
          </mxGeometry>
        </mxCell>
        <mxCell id="Tz1MZ0GIb3pfE02NoQR0-65" value="else" style="edgeLabel;html=1;align=center;verticalAlign=middle;resizable=0;points=[];" vertex="1" connectable="0" parent="Tz1MZ0GIb3pfE02NoQR0-64">
          <mxGeometry x="-0.209" y="2" relative="1" as="geometry">
            <mxPoint as="offset" />
          </mxGeometry>
        </mxCell>
        <mxCell id="Tz1MZ0GIb3pfE02NoQR0-66" value="S" style="ellipse;whiteSpace=wrap;html=1;aspect=fixed;" vertex="1" parent="1">
          <mxGeometry x="105" y="525" width="40" height="40" as="geometry" />
        </mxCell>
        <mxCell id="Tz1MZ0GIb3pfE02NoQR0-67" value="H" style="ellipse;whiteSpace=wrap;html=1;aspect=fixed;" vertex="1" parent="1">
          <mxGeometry x="110" y="530" width="30" height="30" as="geometry" />
        </mxCell>
        <mxCell id="Tz1MZ0GIb3pfE02NoQR0-68" style="edgeStyle=orthogonalEdgeStyle;rounded=0;orthogonalLoop=1;jettySize=auto;html=1;exitX=1;exitY=0.5;exitDx=0;exitDy=0;entryX=0;entryY=0.5;entryDx=0;entryDy=0;" edge="1" target="Tz1MZ0GIb3pfE02NoQR0-66" parent="1">
          <mxGeometry relative="1" as="geometry">
            <mxPoint x="50" y="545" as="sourcePoint" />
          </mxGeometry>
        </mxCell>
        <mxCell id="Tz1MZ0GIb3pfE02NoQR0-69" value="&quot;" style="edgeLabel;html=1;align=center;verticalAlign=middle;resizable=0;points=[];" vertex="1" connectable="0" parent="Tz1MZ0GIb3pfE02NoQR0-68">
          <mxGeometry x="-0.0747" y="-1" relative="1" as="geometry">
            <mxPoint as="offset" />
          </mxGeometry>
        </mxCell>
        <mxCell id="Tz1MZ0GIb3pfE02NoQR0-70" value="S" style="ellipse;whiteSpace=wrap;html=1;aspect=fixed;" vertex="1" parent="1">
          <mxGeometry x="105" y="615" width="40" height="40" as="geometry" />
        </mxCell>
        <mxCell id="Tz1MZ0GIb3pfE02NoQR0-71" value="J" style="ellipse;whiteSpace=wrap;html=1;aspect=fixed;" vertex="1" parent="1">
          <mxGeometry x="110" y="620" width="30" height="30" as="geometry" />
        </mxCell>
        <mxCell id="Tz1MZ0GIb3pfE02NoQR0-72" style="edgeStyle=orthogonalEdgeStyle;rounded=0;orthogonalLoop=1;jettySize=auto;html=1;exitX=1;exitY=0.5;exitDx=0;exitDy=0;entryX=0;entryY=0.5;entryDx=0;entryDy=0;" edge="1" target="Tz1MZ0GIb3pfE02NoQR0-70" parent="1">
          <mxGeometry relative="1" as="geometry">
            <mxPoint x="50" y="635" as="sourcePoint" />
          </mxGeometry>
        </mxCell>
        <mxCell id="Tz1MZ0GIb3pfE02NoQR0-73" value="&quot;" style="edgeLabel;html=1;align=center;verticalAlign=middle;resizable=0;points=[];" vertex="1" connectable="0" parent="Tz1MZ0GIb3pfE02NoQR0-72">
          <mxGeometry x="-0.0747" y="-1" relative="1" as="geometry">
            <mxPoint as="offset" />
          </mxGeometry>
        </mxCell>
        <mxCell id="Tz1MZ0GIb3pfE02NoQR0-74" value="换行" style="edgeLabel;html=1;align=center;verticalAlign=middle;resizable=0;points=[];" vertex="1" connectable="0" parent="Tz1MZ0GIb3pfE02NoQR0-72">
          <mxGeometry x="0.0561" y="3" relative="1" as="geometry">
            <mxPoint as="offset" />
          </mxGeometry>
        </mxCell>
        <mxCell id="Tz1MZ0GIb3pfE02NoQR0-75" value="endline" style="edgeLabel;html=1;align=center;verticalAlign=middle;resizable=0;points=[];" vertex="1" connectable="0" parent="Tz1MZ0GIb3pfE02NoQR0-72">
          <mxGeometry x="0.1361" y="1" relative="1" as="geometry">
            <mxPoint y="-2" as="offset" />
          </mxGeometry>
        </mxCell>
        <mxCell id="Tz1MZ0GIb3pfE02NoQR0-76" value="S" style="ellipse;whiteSpace=wrap;html=1;aspect=fixed;" vertex="1" parent="1">
          <mxGeometry x="105" y="700" width="40" height="40" as="geometry" />
        </mxCell>
        <mxCell id="Tz1MZ0GIb3pfE02NoQR0-77" value="L" style="ellipse;whiteSpace=wrap;html=1;aspect=fixed;" vertex="1" parent="1">
          <mxGeometry x="110" y="705" width="30" height="30" as="geometry" />
        </mxCell>
        <mxCell id="Tz1MZ0GIb3pfE02NoQR0-78" style="edgeStyle=orthogonalEdgeStyle;rounded=0;orthogonalLoop=1;jettySize=auto;html=1;exitX=1;exitY=0.5;exitDx=0;exitDy=0;entryX=0;entryY=0.5;entryDx=0;entryDy=0;" edge="1" target="Tz1MZ0GIb3pfE02NoQR0-76" parent="1">
          <mxGeometry relative="1" as="geometry">
            <mxPoint x="50" y="720" as="sourcePoint" />
          </mxGeometry>
        </mxCell>
        <mxCell id="Tz1MZ0GIb3pfE02NoQR0-82" value="*/" style="edgeLabel;html=1;align=center;verticalAlign=middle;resizable=0;points=[];" vertex="1" connectable="0" parent="Tz1MZ0GIb3pfE02NoQR0-78">
          <mxGeometry x="0.4161" relative="1" as="geometry">
            <mxPoint x="-18" as="offset" />
          </mxGeometry>
        </mxCell>
        <mxCell id="Tz1MZ0GIb3pfE02NoQR0-83" style="edgeStyle=orthogonalEdgeStyle;rounded=0;orthogonalLoop=1;jettySize=auto;html=1;exitX=0;exitY=0;exitDx=0;exitDy=0;" edge="1" parent="1">
          <mxGeometry relative="1" as="geometry">
            <mxPoint x="43" y="705" as="targetPoint" />
            <mxPoint x="15" y="705" as="sourcePoint" />
            <Array as="points">
              <mxPoint x="15" y="679" />
              <mxPoint x="69" y="679" />
              <mxPoint x="69" y="705" />
            </Array>
          </mxGeometry>
        </mxCell>
        <mxCell id="Tz1MZ0GIb3pfE02NoQR0-84" value="else" style="edgeLabel;html=1;align=center;verticalAlign=middle;resizable=0;points=[];" vertex="1" connectable="0" parent="Tz1MZ0GIb3pfE02NoQR0-83">
          <mxGeometry x="-0.209" y="2" relative="1" as="geometry">
            <mxPoint as="offset" />
          </mxGeometry>
        </mxCell>
        <mxCell id="Tz1MZ0GIb3pfE02NoQR0-85" value="C" style="ellipse;whiteSpace=wrap;html=1;aspect=fixed;" vertex="1" parent="1">
          <mxGeometry x="15" y="365" width="30" height="30" as="geometry" />
        </mxCell>
        <mxCell id="Tz1MZ0GIb3pfE02NoQR0-91" style="edgeStyle=orthogonalEdgeStyle;rounded=0;orthogonalLoop=1;jettySize=auto;html=1;exitX=1;exitY=0.5;exitDx=0;exitDy=0;entryX=0;entryY=0.5;entryDx=0;entryDy=0;" edge="1" parent="1" source="Tz1MZ0GIb3pfE02NoQR0-87" target="Tz1MZ0GIb3pfE02NoQR0-90">
          <mxGeometry relative="1" as="geometry" />
        </mxCell>
        <mxCell id="Tz1MZ0GIb3pfE02NoQR0-92" value="digit" style="edgeLabel;html=1;align=center;verticalAlign=middle;resizable=0;points=[];" vertex="1" connectable="0" parent="Tz1MZ0GIb3pfE02NoQR0-91">
          <mxGeometry x="-0.1475" y="-1" relative="1" as="geometry">
            <mxPoint as="offset" />
          </mxGeometry>
        </mxCell>
        <mxCell id="Tz1MZ0GIb3pfE02NoQR0-87" value="M" style="ellipse;whiteSpace=wrap;html=1;aspect=fixed;" vertex="1" parent="1">
          <mxGeometry x="83.33" y="360" width="40" height="40" as="geometry" />
        </mxCell>
        <mxCell id="Tz1MZ0GIb3pfE02NoQR0-90" value="N" style="ellipse;whiteSpace=wrap;html=1;aspect=fixed;" vertex="1" parent="1">
          <mxGeometry x="170" y="360" width="40" height="40" as="geometry" />
        </mxCell>
        <mxCell id="Tz1MZ0GIb3pfE02NoQR0-93" style="edgeStyle=orthogonalEdgeStyle;rounded=0;orthogonalLoop=1;jettySize=auto;html=1;exitX=0;exitY=0;exitDx=0;exitDy=0;" edge="1" parent="1">
          <mxGeometry relative="1" as="geometry">
            <mxPoint x="204" y="365" as="targetPoint" />
            <mxPoint x="176" y="365" as="sourcePoint" />
            <Array as="points">
              <mxPoint x="176" y="339" />
              <mxPoint x="230" y="339" />
              <mxPoint x="230" y="365" />
            </Array>
          </mxGeometry>
        </mxCell>
        <mxCell id="Tz1MZ0GIb3pfE02NoQR0-94" value="digit" style="edgeLabel;html=1;align=center;verticalAlign=middle;resizable=0;points=[];" vertex="1" connectable="0" parent="Tz1MZ0GIb3pfE02NoQR0-93">
          <mxGeometry x="-0.209" y="2" relative="1" as="geometry">
            <mxPoint as="offset" />
          </mxGeometry>
        </mxCell>
      </root>
    </mxGraphModel>
  </diagram>
</mxfile>
